<?xml version="1.0" encoding="UTF-8"?>
<svg width="424.04" height="166.29" version="1.1" viewBox="0 0 112.19 43.997" xmlns="http://www.w3.org/2000/svg">
 <path d="m102.86 18.649s-0.41932-5.3995-2.1787-7.1664c-1.7593-1.767-7.1356-2.188-7.1356-2.188s5.3704-0.40119 7.1215-2.1633c1.7449-1.7558 2.1325-7.1308 2.1325-7.1308s0.45693 5.3752 2.2214 7.1236c1.7772 1.7609 7.1732 2.1502 7.1732 2.1502s-5.3987 0.42966-7.1616 2.2036c-1.7566 1.7677-2.1726 7.1712-2.1726 7.1712z" fill="#f7c2dc" stroke-linecap="round" stroke-linejoin="round" stroke-width="1.4952" style="paint-order:markers stroke fill"/>
 <path d="m84.15 37.357s-0.41932-5.3995-2.1787-7.1664c-1.7596-1.7667-7.1356-2.188-7.1356-2.188s5.3704-0.40119 7.1215-2.1633c1.7449-1.7558 2.1325-7.1308 2.1325-7.1308s0.45693 5.3752 2.2214 7.1236c1.7772 1.7609 7.1732 2.1502 7.1732 2.1502s-5.3987 0.42966-7.1617 2.2036c-1.7566 1.7677-2.1726 7.1712-2.1726 7.1712z" fill="#f7c2dc" stroke-linecap="round" stroke-linejoin="round" stroke-width="1.4952" style="paint-order:markers stroke fill"/>
 <path d="m100.05 12.1-13.096 13.096" fill="none" stroke="#f7c2dc" stroke-dasharray="0.257397, 0.514792" stroke-width=".2574px"/>
 <path d="m81.343 25.197-13.096-13.096" fill="none" stroke="#f7c2dc" stroke-dasharray="0.257397, 0.514792" stroke-width=".2574px"/>
 <path d="m63.287 11.443s1.1491-1.3427 1.1509-2.1563c0.0018-0.81368-1.1416-2.1514-1.1416-2.1514s1.3318 1.1466 2.1424 1.1441c0.80774-0.0025 2.1374-1.1533 2.1374-1.1533s-1.1348 1.3457-1.1311 2.1563c0.0038 0.8164 1.159 2.1513 1.159 2.1513s-1.3449-1.1466-2.161-1.144c-0.8132 0.0025-2.156 1.1534-2.156 1.1534z" fill="#00c2dc" stroke-linecap="round" stroke-linejoin="round" stroke-width=".4879" style="paint-order:markers stroke fill"/>
 <g fill="none" stroke="#f7c2dc" stroke-dasharray="0.257397, 0.514792" stroke-width=".2574px">
  <path d="m81.344 30.809-13.096 13.096"/>
  <path d="m43.926 30.809-13.096 13.096"/>
  <path d="m25.217 12.1-13.096 13.096"/>
  <path d="m62.635 12.1-13.096 13.096"/>
  <path d="m62.635 43.906-13.096-13.096"/>
 </g>
 <path d="m9.3142 37.357s-0.41932-5.3995-2.1787-7.1664c-1.7596-1.7667-7.1356-2.188-7.1356-2.188s5.3704-0.40119 7.1215-2.1633c1.7447-1.756 2.1325-7.1309 2.1325-7.1309s0.45693 5.3752 2.2214 7.1236c1.7772 1.7609 7.1732 2.1503 7.1732 2.1503s-5.3987 0.42966-7.1616 2.2036c-1.7565 1.7678-2.1727 7.1712-2.1727 7.1712z" fill="#f7c2dc" stroke-linecap="round" stroke-linejoin="round" stroke-width="1.4952" style="paint-order:markers stroke fill"/>
 <path d="m25.217 43.906-13.096-13.096" fill="none" stroke="#f7c2dc" stroke-dasharray="0.257397, 0.514792" stroke-width=".2574px"/>
 <path d="m28.023 18.649s-0.41932-5.3995-2.1787-7.1664c-1.7593-1.767-7.1356-2.188-7.1356-2.188s5.3704-0.40119 7.1215-2.1633c1.7449-1.7558 2.1325-7.1309 2.1325-7.1309s0.45693 5.3752 2.2214 7.1236c1.7772 1.7609 7.1732 2.1503 7.1732 2.1503s-5.3987 0.42966-7.1617 2.2036c-1.7566 1.7677-2.1726 7.1712-2.1726 7.1712z" fill="#f7c2dc" stroke-linecap="round" stroke-linejoin="round" stroke-width="1.4952" style="paint-order:markers stroke fill"/>
 <path d="m43.926 25.197-13.096-13.096" fill="none" stroke="#f7c2dc" stroke-dasharray="0.257397, 0.514792" stroke-width=".2574px"/>
 <path d="m44.578 30.152s1.1491-1.3427 1.1509-2.1563c0.0018-0.81368-1.1416-2.1514-1.1416-2.1514s1.3318 1.1466 2.1424 1.1441c0.80774-0.0025 2.1374-1.1533 2.1374-1.1533s-1.1348 1.3457-1.1311 2.1563c0.0038 0.8164 1.159 2.1513 1.159 2.1513s-1.3449-1.1466-2.161-1.144c-0.8132 0.0025-2.156 1.1534-2.156 1.1534z" fill="#00c2dc" stroke-linecap="round" stroke-linejoin="round" stroke-width=".4879" style="paint-order:markers stroke fill"/>
</svg>
